<?xml version="1.0" encoding="UTF-8" standalone="no"?>
<!-- Created with Inkscape (http://www.inkscape.org/) -->

<svg
   xmlns:dc="http://purl.org/dc/elements/1.1/"
   xmlns:cc="http://creativecommons.org/ns#"
   xmlns:rdf="http://www.w3.org/1999/02/22-rdf-syntax-ns#"
   xmlns:svg="http://www.w3.org/2000/svg"
   xmlns="http://www.w3.org/2000/svg"
   xmlns:xlink="http://www.w3.org/1999/xlink"
   version="1.0"
   width="48"
   height="48"
   id="svg2">
  <metadata
     id="metadata7">
    <rdf:RDF>
      <cc:Work
         rdf:about="">
        <dc:format>image/svg+xml</dc:format>
        <dc:type
           rdf:resource="http://purl.org/dc/dcmitype/StillImage" />
        <dc:title></dc:title>
      </cc:Work>
    </rdf:RDF>
  </metadata>
  <defs
     id="defs5">
    <linearGradient
       id="linearGradient5135">
      <stop
         id="stop5137"
         style="stop-color:#3f3f3f;stop-opacity:1"
         offset="0" />
      <stop
         id="stop2163"
         style="stop-color:#ffffff;stop-opacity:1"
         offset="1" />
    </linearGradient>
    <linearGradient
       x1="40.605217"
       y1="12.89941"
       x2="17.594276"
       y2="36.913795"
       id="linearGradient3171"
       xlink:href="#linearGradient5135"
       gradientUnits="userSpaceOnUse"
       gradientTransform="matrix(0.9637557,0,0,0.7931017,-1.7786882,-2.5602451)" />
    <clipPath
       id="clipPath3460">
      <path
         d="m 25.069881,41.130496 c 2.009508,-0.708782 2.625288,-2.926039 3.531618,-4.751657 1.062023,-1.113794 1.980231,1.454865 4.051545,1.217263 1.426334,-0.162405 3.694776,-2.570638 2.811061,-4.138277 -1.942138,-1.699218 -3.325246,0.49569 -4.531188,-0.918009 -0.184112,-1.52294 4.010533,-2.621164 3.027396,-3.732523 -1.793631,-1.332624 -5.134544,-0.985102 -8.344029,-2.221525 -1.432182,-1.618182 3.236193,-0.944258 2.208715,-2.524461 -0.420789,-0.634509 -3.213765,-2.1797 -6.380729,-1.514677 -2.033822,0.67495 0.355857,2.738281 -2.822245,2.524461 -2.173237,-0.270394 -5.866553,-1.687286 -7.975909,-1.009785 -1.6343088,1.118443 -2.4428745,2.680125 -2.5768317,3.231311 -0.332092,1.706123 3.6074277,0.561742 4.1809617,1.006103 1.697299,1.399125 -1.927111,3.13369 -2.9516624,2.54471 -0.4099508,-0.82499 -1.402807,-1.254576 -2.7666661,-0.96445 -1.3844367,0.08577 -3.7092857,4.209632 -3.0161875,5.293639 1.1617336,1.353652 7.451904,3.066425 9.008341,2.87229 2.036634,0.05236 0.918158,-0.840179 1.064435,-1.984026 0.313539,-1.455668 7.576276,0.610365 6.029579,1.59711 -2.070609,0.382212 -2.643022,1.091778 -1.883419,1.819454 1.376821,1.167016 6.171138,2.205385 7.335215,1.653049 z"
         id="path3462"
         style="opacity:0.14084509;fill:#0000ff;fill-opacity:1;fill-rule:evenodd;stroke:#000000;stroke-width:0.52972847;stroke-linecap:butt;stroke-linejoin:miter;stroke-miterlimit:4;stroke-opacity:1;stroke-dasharray:none;display:inline" />
    </clipPath>
    <linearGradient
       x1="22.804193"
       y1="29.992498"
       x2="22.89258"
       y2="20.668289"
       id="linearGradient3458"
       xlink:href="#linearGradient3452"
       gradientUnits="userSpaceOnUse" />
    <radialGradient
       cx="128.72601"
       cy="228.36729"
       r="105.21568"
       fx="128.72601"
       fy="228.36729"
       id="radialGradient4068"
       xlink:href="#linearGradient3166"
       gradientUnits="userSpaceOnUse"
       gradientTransform="matrix(0.1418664,0,0,0.08089297,2.1848301,-9.1768846)" />
    <linearGradient
       id="linearGradient2671">
      <stop
         id="stop2673"
         style="stop-color:#3f3f3f;stop-opacity:1"
         offset="0" />
      <stop
         id="stop5139"
         style="stop-color:#ffffff;stop-opacity:1"
         offset="1" />
    </linearGradient>
    <linearGradient
       id="linearGradient3166">
      <stop
         id="stop3168"
         style="stop-color:#676767;stop-opacity:1"
         offset="0" />
      <stop
         id="stop3170"
         style="stop-color:#656565;stop-opacity:0"
         offset="1" />
    </linearGradient>
    <linearGradient
       id="linearGradient3452">
      <stop
         id="stop3454"
         style="stop-color:#020202;stop-opacity:1"
         offset="0" />
      <stop
         id="stop3456"
         style="stop-color:#010101;stop-opacity:0"
         offset="1" />
    </linearGradient>
    <linearGradient
       x1="40.605217"
       y1="12.89941"
       x2="17.594276"
       y2="36.913795"
       id="linearGradient2409"
       xlink:href="#linearGradient5135"
       gradientUnits="userSpaceOnUse"
       gradientTransform="matrix(0.9637557,0,0,0.7931017,-1.7786882,-2.5602451)" />
    <filter
       x="-0.12703244"
       y="-0.16318549"
       width="1.2540649"
       height="1.326371"
       color-interpolation-filters="sRGB"
       id="filter5735">
      <feGaussianBlur
         stdDeviation="12.915397"
         id="feGaussianBlur5737" />
    </filter>
    <linearGradient
       id="linearGradient5641">
      <stop
         id="stop5643"
         style="stop-color:#b5b5b5;stop-opacity:1"
         offset="0" />
      <stop
         id="stop5647"
         style="stop-color:#868686;stop-opacity:1"
         offset="0.5" />
      <stop
         id="stop5645"
         style="stop-color:#c7c7c7;stop-opacity:1"
         offset="1" />
    </linearGradient>
    <linearGradient
       id="linearGradient5966">
      <stop
         id="stop5968"
         style="stop-color:#e3e3e3;stop-opacity:1"
         offset="0" />
      <stop
         id="stop5970"
         style="stop-color:#b2b2b2;stop-opacity:1"
         offset="0.5" />
      <stop
         id="stop5972"
         style="stop-color:#d6d6d6;stop-opacity:1"
         offset="1" />
    </linearGradient>
    <linearGradient
       id="linearGradient3128">
      <stop
         id="stop3130"
         style="stop-color:#b5b5b5;stop-opacity:1"
         offset="0" />
      <stop
         id="stop3132"
         style="stop-color:#868686;stop-opacity:1"
         offset="0.5" />
      <stop
         id="stop3134"
         style="stop-color:#c7c7c7;stop-opacity:1"
         offset="1" />
    </linearGradient>
    <linearGradient
       id="linearGradient3137">
      <stop
         id="stop3139"
         style="stop-color:#b5b5b5;stop-opacity:1"
         offset="0" />
      <stop
         id="stop3141"
         style="stop-color:#868686;stop-opacity:1"
         offset="0.5" />
      <stop
         id="stop3143"
         style="stop-color:#c7c7c7;stop-opacity:1"
         offset="1" />
    </linearGradient>
    <linearGradient
       id="linearGradient3146">
      <stop
         id="stop3148"
         style="stop-color:#b5b5b5;stop-opacity:1"
         offset="0" />
      <stop
         id="stop3150"
         style="stop-color:#868686;stop-opacity:1"
         offset="0.5" />
      <stop
         id="stop3152"
         style="stop-color:#c7c7c7;stop-opacity:1"
         offset="1" />
    </linearGradient>
    <linearGradient
       id="linearGradient5615">
      <stop
         id="stop5617"
         style="stop-color:#717171;stop-opacity:1"
         offset="0" />
      <stop
         id="stop5619"
         style="stop-color:#cccccc;stop-opacity:1"
         offset="1" />
    </linearGradient>
    <linearGradient
       id="linearGradient3159">
      <stop
         id="stop3161"
         style="stop-color:#b5b5b5;stop-opacity:1"
         offset="0" />
      <stop
         id="stop3163"
         style="stop-color:#868686;stop-opacity:1"
         offset="0.5" />
      <stop
         id="stop3165"
         style="stop-color:#c7c7c7;stop-opacity:1"
         offset="1" />
    </linearGradient>
    <linearGradient
       id="linearGradient3168">
      <stop
         id="stop3170-1"
         style="stop-color:#b5b5b5;stop-opacity:1"
         offset="0" />
      <stop
         id="stop3172"
         style="stop-color:#868686;stop-opacity:1"
         offset="0.5" />
      <stop
         id="stop3174"
         style="stop-color:#c7c7c7;stop-opacity:1"
         offset="1" />
    </linearGradient>
    <linearGradient
       id="linearGradient5579">
      <stop
         id="stop5581"
         style="stop-color:#eddee1;stop-opacity:1"
         offset="0" />
      <stop
         id="stop5583"
         style="stop-color:#cb9ea7;stop-opacity:1"
         offset="1" />
    </linearGradient>
    <linearGradient
       id="linearGradient3181">
      <stop
         id="stop3183"
         style="stop-color:#b5b5b5;stop-opacity:1"
         offset="0" />
      <stop
         id="stop3185"
         style="stop-color:#868686;stop-opacity:1"
         offset="0.5" />
      <stop
         id="stop3187"
         style="stop-color:#c7c7c7;stop-opacity:1"
         offset="1" />
    </linearGradient>
    <linearGradient
       id="linearGradient5597">
      <stop
         id="stop5599"
         style="stop-color:#717171;stop-opacity:1"
         offset="0" />
      <stop
         id="stop5601"
         style="stop-color:#717171;stop-opacity:0"
         offset="1" />
    </linearGradient>
    <linearGradient
       id="linearGradient3201">
      <stop
         id="stop3203"
         style="stop-color:#717171;stop-opacity:1"
         offset="0" />
      <stop
         id="stop3205"
         style="stop-color:#cccccc;stop-opacity:1"
         offset="1" />
    </linearGradient>
    <linearGradient
       id="linearGradient3208">
      <stop
         id="stop3210"
         style="stop-color:#717171;stop-opacity:1"
         offset="0" />
      <stop
         id="stop3212"
         style="stop-color:#cccccc;stop-opacity:1"
         offset="1" />
    </linearGradient>
    <linearGradient
       id="linearGradient3215">
      <stop
         id="stop3217"
         style="stop-color:#717171;stop-opacity:1"
         offset="0" />
      <stop
         id="stop3219"
         style="stop-color:#cccccc;stop-opacity:1"
         offset="1" />
    </linearGradient>
    <linearGradient
       id="linearGradient5693">
      <stop
         id="stop5695"
         style="stop-color:#c9c9c9;stop-opacity:1"
         offset="0" />
      <stop
         id="stop5701"
         style="stop-color:#939393;stop-opacity:1"
         offset="0.32142857" />
      <stop
         id="stop5703"
         style="stop-color:#d1d1d1;stop-opacity:1"
         offset="0.75" />
      <stop
         id="stop5697"
         style="stop-color:#b2b2b2;stop-opacity:1"
         offset="1" />
    </linearGradient>
    <linearGradient
       id="linearGradient5707">
      <stop
         id="stop5709"
         style="stop-color:#e8e8e8;stop-opacity:1"
         offset="0" />
      <stop
         id="stop5711"
         style="stop-color:#717171;stop-opacity:0"
         offset="1" />
    </linearGradient>
    <linearGradient
       id="linearGradient5887">
      <stop
         id="stop5889"
         style="stop-color:#ffffff;stop-opacity:1"
         offset="0" />
      <stop
         id="stop5891"
         style="stop-color:#ffffff;stop-opacity:0"
         offset="1" />
    </linearGradient>
    <linearGradient
       id="linearGradient5897">
      <stop
         id="stop5899"
         style="stop-color:#cecece;stop-opacity:1"
         offset="0" />
      <stop
         id="stop5901"
         style="stop-color:#a0a0a0;stop-opacity:1"
         offset="1" />
    </linearGradient>
    <linearGradient
       id="linearGradient5978">
      <stop
         id="stop5980"
         style="stop-color:#f5f5f5;stop-opacity:1"
         offset="0" />
      <stop
         id="stop5982"
         style="stop-color:#c7c7c7;stop-opacity:1"
         offset="1" />
    </linearGradient>
    <linearGradient
       id="linearGradient3244">
      <stop
         id="stop3246"
         style="stop-color:#f5f5f5;stop-opacity:1"
         offset="0" />
      <stop
         id="stop3248"
         style="stop-color:#c7c7c7;stop-opacity:1"
         offset="1" />
    </linearGradient>
    <linearGradient
       id="linearGradient5753">
      <stop
         id="stop5755"
         style="stop-color:#ffffff;stop-opacity:1"
         offset="0" />
      <stop
         id="stop5757"
         style="stop-color:#ffffff;stop-opacity:0"
         offset="1" />
    </linearGradient>
    <linearGradient
       id="linearGradient5745">
      <stop
         id="stop5747"
         style="stop-color:#ffffff;stop-opacity:1"
         offset="0" />
      <stop
         id="stop5749"
         style="stop-color:#ffffff;stop-opacity:0"
         offset="1" />
    </linearGradient>
    <linearGradient
       x1="57.21373"
       y1="179.57538"
       x2="93.290894"
       y2="177.23959"
       id="linearGradient3585"
       xlink:href="#linearGradient5641"
       gradientUnits="userSpaceOnUse"
       gradientTransform="matrix(0.201008,0,0,0.2009534,-42.598294,-9.700064)" />
    <linearGradient
       x1="38.890877"
       y1="145.8279"
       x2="59.220192"
       y2="145.88857"
       id="linearGradient3587"
       xlink:href="#linearGradient5966"
       gradientUnits="userSpaceOnUse"
       gradientTransform="matrix(0.201008,0,0,0.2009534,-42.598294,-9.700064)" />
    <linearGradient
       x1="80.96373"
       y1="195.32538"
       x2="108.54089"
       y2="195.73959"
       id="linearGradient3589"
       xlink:href="#linearGradient5641"
       gradientUnits="userSpaceOnUse"
       gradientTransform="matrix(0.201008,0,0,0.2009534,-42.598294,-9.700064)" />
    <linearGradient
       x1="199.5"
       y1="114.25"
       x2="228.25"
       y2="113"
       id="linearGradient3591"
       xlink:href="#linearGradient5641"
       gradientUnits="userSpaceOnUse"
       gradientTransform="matrix(0.201008,0,0,0.2009534,-42.598294,-9.700064)" />
    <linearGradient
       x1="192"
       y1="146.25"
       x2="225.75"
       y2="145.25"
       id="linearGradient3593"
       xlink:href="#linearGradient5641"
       gradientUnits="userSpaceOnUse"
       gradientTransform="matrix(0.201008,0,0,0.2009534,-42.598294,-9.700064)" />
    <linearGradient
       x1="184"
       y1="166"
       x2="215.5"
       y2="170.25"
       id="linearGradient3595"
       xlink:href="#linearGradient5615"
       gradientUnits="userSpaceOnUse"
       gradientTransform="matrix(0.201008,0,0,0.2009534,-42.598294,-9.700064)" />
    <linearGradient
       x1="192"
       y1="146.25"
       x2="225.75"
       y2="145.25"
       id="linearGradient3597"
       xlink:href="#linearGradient5641"
       gradientUnits="userSpaceOnUse"
       gradientTransform="matrix(0.201008,0,0,0.2009534,-42.598294,-9.700064)" />
    <linearGradient
       x1="116.834"
       y1="194.83527"
       x2="145.664"
       y2="194.83527"
       id="linearGradient3599"
       xlink:href="#linearGradient5641"
       gradientUnits="userSpaceOnUse"
       gradientTransform="matrix(0.201008,0,0,0.2009534,-42.598294,-9.700064)" />
    <linearGradient
       x1="134.34375"
       y1="71.5"
       x2="171.65625"
       y2="212.5"
       id="linearGradient3601"
       xlink:href="#linearGradient5579"
       gradientUnits="userSpaceOnUse"
       gradientTransform="matrix(0.201008,0,0,0.2009534,-42.598294,-14.92485)" />
    <linearGradient
       x1="153.25"
       y1="202.75"
       x2="184.25"
       y2="201.75"
       id="linearGradient3603"
       xlink:href="#linearGradient5641"
       gradientUnits="userSpaceOnUse"
       gradientTransform="matrix(0.201008,0,0,0.2009534,-42.598294,-9.700064)" />
    <radialGradient
       cx="-88.308083"
       cy="73.568199"
       r="101.65625"
       fx="-88.308083"
       fy="73.568199"
       id="radialGradient3605"
       xlink:href="#linearGradient5597"
       gradientUnits="userSpaceOnUse"
       gradientTransform="matrix(0.1380877,0.04546623,-0.023832,0.07234204,-21.012453,8.1839412)" />
    <radialGradient
       cx="147.50781"
       cy="165.91266"
       r="101.65625"
       fx="147.50781"
       fy="165.91266"
       id="radialGradient3607"
       xlink:href="#linearGradient5597"
       gradientUnits="userSpaceOnUse"
       gradientTransform="matrix(0.1440197,0.05930378,-0.02901487,0.07042458,-18.826812,-3.9077538)" />
    <linearGradient
       x1="172.42566"
       y1="202.57323"
       x2="152.25"
       y2="202.57323"
       id="linearGradient3609"
       xlink:href="#linearGradient5615"
       gradientUnits="userSpaceOnUse"
       gradientTransform="matrix(0.201008,0,0,0.2009534,-42.598294,-9.700064)" />
    <linearGradient
       x1="201"
       y1="189"
       x2="145"
       y2="212.5"
       id="linearGradient3611"
       xlink:href="#linearGradient5615"
       gradientUnits="userSpaceOnUse"
       gradientTransform="matrix(0.201008,0,0,0.2009534,-42.598294,-9.700064)" />
    <linearGradient
       x1="228.5"
       y1="149.5"
       x2="141"
       y2="202.5"
       id="linearGradient3613"
       xlink:href="#linearGradient5615"
       gradientUnits="userSpaceOnUse"
       gradientTransform="matrix(0.201008,0,0,0.2009534,-42.598294,-9.700064)" />
    <linearGradient
       x1="65"
       y1="95"
       x2="190"
       y2="95"
       id="linearGradient3615"
       xlink:href="#linearGradient5693"
       gradientUnits="userSpaceOnUse"
       gradientTransform="matrix(0.1989978,0,0,0.2009534,-42.216379,-9.700064)" />
    <radialGradient
       cx="69.515442"
       cy="48.968105"
       r="101.65625"
       fx="69.515442"
       fy="48.968105"
       id="radialGradient3617"
       xlink:href="#linearGradient5707"
       gradientUnits="userSpaceOnUse"
       gradientTransform="matrix(0.2830276,-0.2829508,0.1470958,0.1470559,-37.113812,16.13174)" />
    <linearGradient
       x1="147.25"
       y1="195.625"
       x2="148.75"
       y2="218.875"
       id="linearGradient3619"
       xlink:href="#linearGradient5887"
       gradientUnits="userSpaceOnUse"
       gradientTransform="matrix(0.201008,0,0,0.2009534,-42.598294,-9.9010169)" />
    <linearGradient
       x1="115"
       y1="205.75"
       x2="124.5"
       y2="206"
       id="linearGradient3621"
       xlink:href="#linearGradient5897"
       gradientUnits="userSpaceOnUse"
       gradientTransform="matrix(0.201008,0,0,0.2009534,-42.598294,-9.700064)" />
    <linearGradient
       x1="63.213203"
       y1="180.75673"
       x2="83.841362"
       y2="193.125"
       id="linearGradient3623"
       xlink:href="#linearGradient5978"
       gradientUnits="userSpaceOnUse"
       gradientTransform="matrix(0.201008,0,0,0.2009534,-42.598294,-9.700064)" />
    <linearGradient
       x1="42"
       y1="172.625"
       x2="55.910641"
       y2="172.625"
       id="linearGradient3625"
       xlink:href="#linearGradient5978"
       gradientUnits="userSpaceOnUse"
       gradientTransform="matrix(0.201008,0,0,0.2009534,-42.598294,-9.700064)" />
    <linearGradient
       x1="31.071491"
       y1="36.879368"
       x2="30.94672"
       y2="11.32831"
       id="linearGradient3627"
       xlink:href="#linearGradient5753"
       gradientUnits="userSpaceOnUse"
       gradientTransform="matrix(1.0122267,0,0,1.0123098,-41.898545,-8.475996)" />
    <linearGradient
       x1="26.934336"
       y1="5.5277748"
       x2="26.934338"
       y2="28.598352"
       id="linearGradient3629"
       xlink:href="#linearGradient5745"
       gradientUnits="userSpaceOnUse"
       gradientTransform="matrix(1.0437257,0,0,1.0442057,-42.677419,-9.1497379)" />
    <clipPath
       id="SVGID_2_">
      <path
         d="m 205.34863,-40.52466 -15.87891,4.53467 c -0.32129,0.0918 -0.65332,0.1582 -0.99512,0.19824 l 15.87793,-4.53516 c 0.34181,-0.03906 0.67481,-0.10595 0.9961,-0.19775 z"
         id="use6664" />
    </clipPath>
    <clipPath
       id="SVGID_4_">
      <path
         d="m 185.35059,-35.33667 15.87891,-4.53516 c 0.36914,-0.10547 0.74414,-0.18164 1.12012,-0.22461 l -15.87793,4.53418 c -0.37696,0.04395 -0.75099,0.11914 -1.1211,0.22559 z"
         id="use6680" />
    </clipPath>
    <clipPath
       id="SVGID_6_">
      <path
         d="m 153.12305,-108.4646 c 5.29297,-1.51172 10.58594,-3.02295 15.87891,-4.53467 -1.30078,0.37158 -2.49316,1.16553 -3.37109,2.3584 l -15.87793,4.53467 c 0.87792,-1.19336 2.06933,-1.98731 3.37011,-2.3584 z"
         id="use6692" />
    </clipPath>
    <clipPath
       id="SVGID_8_">
      <path
         d="m 159.45996,-105.47144 -15.87793,4.53467 c 1.85156,-0.52881 3.54785,-1.60205 4.64453,-3.09473 l 15.87891,-4.53467 c -1.09766,1.49268 -2.79395,2.56593 -4.64551,3.09473 z"
         id="use6716" />
    </clipPath>
    <clipPath
       id="SVGID_10_">
      <path
         d="m 187.51465,10.69556 -15.87891,4.53418 c -0.33203,0.09473 -0.6709,0.16211 -1.01465,0.20215 -1.68555,0.19336 -3.45996,-0.28516 -4.91992,-1.48438 L 181.5791,9.41333 c 1.45996,1.19824 3.23535,1.67773 4.9209,1.4834 0.34277,-0.03906 0.68262,-0.10645 1.01465,-0.20117 z"
         id="use6736" />
    </clipPath>
    <clipPath
       id="SVGID_12_">
      <path
         d="m 156.03906,11.22192 c 5.29297,-1.51172 10.58496,-3.02344 15.87793,-4.53516 0.46973,-0.13379 0.95508,-0.22852 1.44824,-0.28613 2.40625,-0.27637 4.99902,0.36426 6.83691,1.87695 l -15.87793,4.53516 c -1.83789,-1.51367 -4.43164,-2.15332 -6.83789,-1.87695 -0.49316,0.05664 -0.97851,0.15137 -1.44726,0.28613 z"
         id="use6752" />
    </clipPath>
    <clipPath
       id="SVGID_14_">
      <path
         d="m 146.86914,-5.52612 -15.87891,4.53418 c 18.375,-5.24707 30.47754,-24.03516 27.73145,-44.7041 -3.03613,-22.854 -23.0752,-39.35693 -44.75391,-36.86426 -2.07324,0.23828 -4.08691,0.64209 -6.03027,1.19678 l 15.87891,-4.53467 c 1.94336,-0.55469 3.95605,-0.95801 6.0293,-1.19678 21.67871,-2.49268 41.71875,14.01025 44.75488,36.86426 2.74511,20.66943 -9.35645,39.45654 -27.73145,44.70459 z"
         id="use6764" />
    </clipPath>
    <clipPath
       id="SVGID_16_">
      <path
         d="m 101.32422,-118.91772 15.87793,-4.53418 c -3.07324,0.87744 -5.1123,4.03809 -4.6543,7.48926 l -15.87793,4.53467 c -0.45898,-3.45118 1.58106,-6.61182 4.6543,-7.48975 z"
         id="use6788" />
    </clipPath>
    <clipPath
       id="SVGID_18_">
      <path
         d="m 152.65527,31.11938 -15.87793,4.53418 c -0.32129,0.0918 -0.6543,0.1582 -0.99609,0.19824 l 15.87891,-4.53516 c 0.34179,-0.03905 0.67382,-0.10546 0.99511,-0.19726 z"
         id="use6814" />
    </clipPath>
    <clipPath
       id="SVGID_20_">
      <path
         d="m 107.83496,-103.51538 -15.87891,4.53418 c 3.2959,-1.5459 5.58008,-5.9248 5.07324,-9.73828 l 15.87891,-4.53467 c 0.50586,3.81396 -1.77734,8.19238 -5.07324,9.73877 z"
         id="use6826" />
    </clipPath>
    <clipPath
       id="SVGID_22_">
      <path
         d="m 98.66309,-98.46948 -15.87793,4.53467 c 0.85156,-0.24316 1.65039,-0.61377 2.34863,-1.11377 l 15.87793,-4.53467 c -0.69727,0.5 -1.49609,0.8706 -2.34863,1.11377 z"
         id="use6854" />
    </clipPath>
    <clipPath
       id="SVGID_24_">
      <path
         d="m 138.98242,32.77466 -15.87891,4.53418 c -3.61719,0.41602 -6.98926,-2.3623 -7.49609,-6.17578 l 15.87891,-4.53418 c 0.50586,3.8125 3.8789,6.59179 7.49609,6.17578 z"
         id="use6876" />
    </clipPath>
    <clipPath
       id="SVGID_26_">
      <path
         d="m 131.25586,24.87036 -15.87793,4.53418 c -0.50488,-3.80469 -3.86816,-7.54297 -7.46191,-8.30566 l 15.87891,-4.53516 c 3.59374,0.7627 6.95605,4.50195 7.46093,8.30664 z"
         id="use6890" />
    </clipPath>
    <clipPath
       id="SVGID_28_">
      <path
         d="m 66.46875,-98.50073 c 5.29297,-1.51172 10.58496,-3.02295 15.87793,-4.53467 -1.2998,0.37158 -2.49219,1.16553 -3.36914,2.3584 l -15.87891,4.53467 c 0.87793,-1.19336 2.06934,-1.98731 3.37012,-2.3584 z"
         id="use6908" />
    </clipPath>
    <clipPath
       id="SVGID_30_">
      <path
         d="m 93.97852,18.36841 c 5.29297,-1.51172 10.58594,-3.02344 15.87891,-4.53516 0.50586,-0.14453 1.02344,-0.24805 1.54492,-0.30762 1.4043,-0.16113 2.83008,-0.0059 4.09473,0.51855 l -15.87793,4.53418 c -1.26563,-0.52441 -2.69043,-0.67969 -4.0957,-0.51758 -0.5215,0.05958 -1.03907,0.1631 -1.54493,0.30763 z"
         id="use6928" />
    </clipPath>
    <clipPath
       id="SVGID_32_">
      <path
         d="m 77.50195,-67.98657 -15.87793,4.53467 c 1.25098,-3.56299 -0.1084,-8.43652 -3.01855,-10.83398 l 15.87891,-4.53467 c 2.91015,2.39745 4.26953,7.27099 3.01757,10.83398 z"
         id="use6944" />
    </clipPath>
    <clipPath
       id="SVGID_34_">
      <path
         d="m 72.56641,-80.40015 -15.87891,4.53467 c -2.90918,-2.39746 -3.49512,-6.80762 -1.30176,-9.80127 l 15.87891,-4.53418 c -2.19434,2.99317 -1.6084,7.40332 1.30176,9.80078 z"
         id="use6962" />
    </clipPath>
    <clipPath
       id="SVGID_36_">
      <path
         d="m 100.85449,20.65942 -15.87891,4.53516 c -0.33301,0.09473 -0.67285,0.16211 -1.01563,0.20117 -1.68457,0.19434 -3.45801,-0.28516 -4.91309,-1.48438 l 15.87891,-4.53418 c 1.45508,1.19922 3.22852,1.67773 4.91211,1.48438 0.34376,-0.03906 0.6836,-0.10644 1.01661,-0.20215 z"
         id="use6982" />
    </clipPath>
    <clipPath
       id="SVGID_38_">
      <path
         d="m 84.52734,-0.37769 -15.8789,4.53418 c 2.20313,-2.98535 2.26953,-8.04102 0.1543,-11.23535 l 15.87891,-4.53418 c 2.11523,3.19434 2.04882,8.25 -0.15431,11.23535 z"
         id="use6998" />
    </clipPath>
    <clipPath
       id="SVGID_40_">
      <path
         d="m 68.84766,-52.48804 -15.87891,4.53467 c 3.18457,-0.90918 6.0293,-3.99512 6.5957,-7.35547 l 15.87891,-4.53467 c -0.56738,3.36036 -3.41211,6.44629 -6.5957,7.35547 z"
         id="use7012" />
    </clipPath>
    <clipPath
       id="SVGID_42_">
      <path
         d="M 84.70215,10.95435 68.82422,15.4895 C 65.91406,13.09204 65.32813,8.68188 67.52149,5.68774 L 83.4004,1.15356 c -2.19337,2.99317 -1.60743,7.4043 1.30175,9.80079 z"
         id="use7042" />
    </clipPath>
    <clipPath
       id="SVGID_44_">
      <path
         d="m 80.51172,-19.36499 -15.87891,4.53418 c -1.54883,-3.52246 -5.78125,-6.05664 -9.39063,-5.6416 l 15.87891,-4.53516 c 3.60938,-0.41504 7.8418,2.12012 9.39063,5.64258 z"
         id="use7058" />
    </clipPath>
    <radialGradient
       cx="134.92773"
       cy="-46.166752"
       r="77.083076"
       id="radialGradient8126"
       xlink:href="#SVGID_45_"
       gradientUnits="userSpaceOnUse" />
    <radialGradient
       cx="134.92773"
       cy="-46.166752"
       r="77.083076"
       id="SVGID_45_"
       gradientUnits="userSpaceOnUse">
      <stop
         id="stop7073"
         style="stop-color:#939393;stop-opacity:1"
         offset="0.07143" />
      <stop
         id="stop7075"
         style="stop-color:#ffffff;stop-opacity:1"
         offset="0.19231001" />
      <stop
         id="stop7077"
         style="stop-color:#939393;stop-opacity:1"
         offset="0.5" />
      <stop
         id="stop7079"
         style="stop-color:#bbbbbb;stop-opacity:1"
         offset="0.59890002" />
      <stop
         id="stop7081"
         style="stop-color:#b7b7b7;stop-opacity:1"
         offset="0.74725002" />
      <stop
         id="stop7083"
         style="stop-color:#d6d6d6;stop-opacity:1"
         offset="0.80337" />
      <stop
         id="stop7085"
         style="stop-color:#939598;stop-opacity:1"
         offset="1" />
    </radialGradient>
    <clipPath
       id="SVGID_47_">
      <path
         d="m 48.63086,-47.27368 15.87891,-4.53467 c -3.07324,0.87744 -5.11328,4.03809 -4.6543,7.48926 l -15.87891,4.53467 c -0.45898,-3.45118 1.58106,-6.61182 4.6543,-7.48926 z"
         id="use7095" />
    </clipPath>
    <clipPath
       id="SVGID_49_">
      <path
         d="m 69.12695,-24.77808 -15.87891,4.53516 c -3.61719,0.41504 -6.99023,-2.36328 -7.49609,-6.17578 l 15.87891,-4.53516 c 0.50586,3.8125 3.87891,6.5918 7.49609,6.17578 z"
         id="use7121" />
    </clipPath>
    <clipPath
       id="SVGID_51_">
      <path
         d="m 142.34863,91.47583 c -5.29297,1.51172 -10.58594,3.02246 -15.87891,4.53418 -0.32129,0.0918 -0.65332,0.15918 -0.99512,0.19824 l 15.87793,-4.53516 c 0.34181,-0.03906 0.67481,-0.10546 0.9961,-0.19726 z"
         id="use7135" />
    </clipPath>
    <clipPath
       id="SVGID_53_">
      <path
         d="m 122.35059,96.66333 c 5.29297,-1.51172 10.58594,-3.02344 15.87891,-4.53516 0.36914,-0.10547 0.74414,-0.18164 1.12012,-0.22461 l -15.87793,4.53516 c -0.37696,0.04297 -0.75099,0.11914 -1.1211,0.22461 z"
         id="use7151" />
    </clipPath>
    <clipPath
       id="SVGID_55_">
      <path
         d="m 90.12305,23.5354 c 0.23828,-0.06787 0.55566,-0.15869 0.79395,-0.22656 5.02832,-1.43604 10.05566,-2.87207 15.08496,-4.30811 -1.30078,0.37158 -2.49316,1.16553 -3.37109,2.35889 L 86.75293,25.8938 c 0.87793,-1.19287 2.06934,-1.98682 3.37012,-2.3584 z"
         id="use7163" />
    </clipPath>
    <clipPath
       id="SVGID_57_">
      <path
         d="m 96.45996,26.52905 -15.87793,4.53467 c 1.85156,-0.52881 3.54785,-1.60254 4.64453,-3.09473 l 15.87891,-4.53467 c -1.09766,1.49219 -2.79395,2.56592 -4.64551,3.09473 z"
         id="use7187" />
    </clipPath>
    <clipPath
       id="SVGID_59_">
      <path
         d="m 124.51465,142.69556 c -5.29297,1.51074 -10.58594,3.02344 -15.87891,4.53418 -0.33203,0.0957 -0.6709,0.16211 -1.01465,0.20215 -1.68555,0.19336 -3.45996,-0.28516 -4.91992,-1.4834 l 15.87793,-4.53516 c 1.45996,1.19824 3.23535,1.67773 4.9209,1.4834 0.34277,-0.0391 0.68262,-0.10645 1.01465,-0.20117 z"
         id="use7207" />
    </clipPath>
    <clipPath
       id="SVGID_61_">
      <path
         d="m 93.03906,143.22192 c 5.29297,-1.51172 10.58496,-3.02344 15.87793,-4.53516 0.46973,-0.13379 0.95508,-0.22852 1.44824,-0.28516 2.40625,-0.27734 4.99902,0.36328 6.83691,1.87695 l -15.87793,4.53418 c -1.83789,-1.51367 -4.43164,-2.15332 -6.83789,-1.87695 -0.49316,0.0567 -0.97851,0.15235 -1.44726,0.28614 z"
         id="use7223" />
    </clipPath>
    <clipPath
       id="SVGID_63_">
      <path
         d="m 83.86914,126.47388 c -5.29297,1.51172 -10.58545,3.02344 -15.87891,4.53516 18.375,-5.24805 30.47754,-24.03516 27.73145,-44.70459 C 92.68555,63.44995 72.646,46.94751 50.96777,49.44019 c -2.07373,0.23828 -4.08691,0.6416 -6.03027,1.19678 L 60.81592,46.1023 c 1.94336,-0.55518 3.95654,-0.9585 6.03027,-1.19678 21.67822,-2.49268 41.71826,14.00977 44.75439,36.86426 2.74512,20.66894 -9.35644,39.45703 -27.73144,44.7041 z"
         id="use7235" />
    </clipPath>
    <clipPath
       id="SVGID_65_">
      <path
         d="m 38.32373,13.08276 c 5.29346,-1.51123 10.58545,-3.02344 15.87842,-4.53467 -3.07275,0.87793 -5.11279,4.03809 -4.6543,7.48975 l -15.87842,4.53467 c -0.45849,-3.45166 1.58155,-6.6123 4.6543,-7.48975 z"
         id="use7259" />
    </clipPath>
    <clipPath
       id="SVGID_67_">
      <path
         d="m 89.65527,163.11938 c -5.29297,1.51172 -10.58496,3.02246 -15.87793,4.53418 -0.32129,0.0918 -0.6543,0.15918 -0.99609,0.19824 l 15.87793,-4.53418 c 0.34277,-0.04 0.6748,-0.10644 0.99609,-0.19824 z"
         id="use7285" />
    </clipPath>
    <clipPath
       id="SVGID_69_">
      <path
         d="m 44.83496,28.48462 -15.87891,4.53467 c 3.2959,-1.5459 5.58008,-5.9248 5.07324,-9.73828 l 15.87842,-4.53467 c 0.50684,3.81347 -1.77734,8.19238 -5.07275,9.73828 z"
         id="use7297" />
    </clipPath>
    <clipPath
       id="SVGID_71_">
      <path
         d="m 35.66309,33.53101 c -5.29297,1.51123 -10.58545,3.02344 -15.87842,4.53467 0.85205,-0.24316 1.65088,-0.61377 2.34912,-1.11377 l 15.87793,-4.53467 c -0.69776,0.5 -1.49658,0.8706 -2.34863,1.11377 z"
         id="use7325" />
    </clipPath>
    <clipPath
       id="SVGID_73_">
      <path
         d="m 75.98242,164.77466 -15.87891,4.53516 c -3.61719,0.41602 -6.98926,-2.36328 -7.49609,-6.17676 l 15.87842,-4.53418 c 0.50684,3.81347 3.87891,6.59179 7.49658,6.17578 z"
         id="use7347" />
    </clipPath>
    <clipPath
       id="SVGID_75_">
      <path
         d="m 68.25635,156.87036 -15.87842,4.53418 c -0.50537,-3.80371 -3.86816,-7.54297 -7.46191,-8.30566 l 15.87891,-4.53516 c 3.59325,0.76367 6.95605,4.50195 7.46142,8.30664 z"
         id="use7361" />
    </clipPath>
    <clipPath
       id="SVGID_77_">
      <path
         d="m 3.46826,33.49927 c 5.29297,-1.51172 10.58545,-3.02295 15.87842,-4.53467 -1.30029,0.37158 -2.49219,1.16553 -3.36914,2.35889 L 0.09863,35.85767 c 0.87744,-1.19288 2.06934,-1.98682 3.36963,-2.3584 z"
         id="use7379" />
    </clipPath>
    <clipPath
       id="SVGID_79_">
      <path
         d="m 30.97852,150.36841 c 5.02832,-1.43555 10.05615,-2.87207 15.08447,-4.30762 0.23779,-0.0684 0.55566,-0.15918 0.79395,-0.22656 0.50586,-0.14453 1.02393,-0.24805 1.54492,-0.30762 1.40527,-0.16211 2.83008,-0.007 4.09521,0.51758 l -15.87842,4.53516 c -1.26514,-0.52539 -2.68994,-0.68066 -4.09521,-0.51855 -0.521,0.0596 -1.03906,0.16308 -1.54492,0.30761 z"
         id="use7399" />
    </clipPath>
    <clipPath
       id="SVGID_81_">
      <path
         d="m 14.50195,64.01392 -15.87842,4.53467 c 1.25146,-3.56348 -0.10791,-8.43701 -3.01807,-10.83398 l 15.87842,-4.53467 c 2.91016,2.39696 4.26954,7.2705 3.01807,10.83398 z"
         id="use7415" />
    </clipPath>
    <clipPath
       id="SVGID_83_">
      <path
         d="M 9.56641,51.60034 -6.31201,56.13501 C -9.22168,53.73706 -9.80762,49.3269 -7.61426,46.33374 L 8.26416,41.79907 c -2.19336,2.99317 -1.60742,7.40332 1.30225,9.80127 z"
         id="use7433" />
    </clipPath>
    <clipPath
       id="SVGID_85_">
      <path
         d="m 37.85449,152.65942 c -5.29297,1.51172 -10.58594,3.02344 -15.87891,4.53516 -0.33252,0.0947 -0.67236,0.16211 -1.01563,0.20215 -1.68457,0.19336 -3.45801,-0.28613 -4.91309,-1.48535 l 15.87842,-4.53418 c 1.45508,1.19922 3.22852,1.67871 4.91309,1.48438 0.34327,-0.0391 0.68311,-0.10645 1.01612,-0.20216 z"
         id="use7453" />
    </clipPath>
    <clipPath
       id="SVGID_87_">
      <path
         d="m 21.52686,131.62231 -15.87842,4.53418 c 2.20313,-2.98438 2.26953,-8.04004 0.15479,-11.23535 l 15.87842,-4.53418 c 2.11474,3.19434 2.04833,8.25 -0.15479,11.23535 z"
         id="use7469" />
    </clipPath>
    <clipPath
       id="SVGID_89_">
      <path
         d="m 5.84766,79.51245 c -5.02832,1.43604 -10.05664,2.87207 -15.08496,4.30811 -0.23779,0.06787 -0.55566,0.15869 -0.79395,0.22656 3.18457,-0.90918 6.02881,-3.99561 6.59619,-7.35596 l 15.87842,-4.53467 c -0.56738,3.36084 -3.41162,6.44678 -6.5957,7.35596 z"
         id="use7483" />
    </clipPath>
    <clipPath
       id="SVGID_91_">
      <path
         d="M 21.70215,142.95532 5.82373,147.4895 c -2.90967,-2.39746 -3.49561,-6.80762 -1.30225,-9.80176 l 15.87842,-4.53418 c -2.19336,2.99317 -1.60742,7.4043 1.30225,9.80176 z"
         id="use7513" />
    </clipPath>
    <clipPath
       id="SVGID_93_">
      <path
         d="m 17.51123,112.63501 -15.87842,4.53418 c -1.54883,-3.52148 -5.78125,-6.05664 -9.39014,-5.6416 l 15.87842,-4.53418 c 3.60889,-0.41504 7.84131,2.11914 9.39014,5.6416 z"
         id="use7529" />
    </clipPath>
    <radialGradient
       cx="71.926758"
       cy="85.833252"
       r="77.083557"
       id="radialGradient8128"
       xlink:href="#SVGID_94_"
       gradientUnits="userSpaceOnUse" />
    <radialGradient
       cx="71.926758"
       cy="85.833252"
       r="77.083557"
       id="SVGID_94_"
       gradientUnits="userSpaceOnUse">
      <stop
         id="stop7544"
         style="stop-color:#939393;stop-opacity:1"
         offset="0.07143" />
      <stop
         id="stop7546"
         style="stop-color:#ffffff;stop-opacity:1"
         offset="0.19231001" />
      <stop
         id="stop7548"
         style="stop-color:#939393;stop-opacity:1"
         offset="0.5" />
      <stop
         id="stop7550"
         style="stop-color:#bbbbbb;stop-opacity:1"
         offset="0.59890002" />
      <stop
         id="stop7552"
         style="stop-color:#b7b7b7;stop-opacity:1"
         offset="0.74725002" />
      <stop
         id="stop7554"
         style="stop-color:#d6d6d6;stop-opacity:1"
         offset="0.80337" />
      <stop
         id="stop7556"
         style="stop-color:#939598;stop-opacity:1"
         offset="1" />
    </radialGradient>
    <clipPath
       id="SVGID_96_">
      <path
         d="m -14.36914,84.72632 c 5.29297,-1.51123 10.58545,-3.02295 15.87842,-4.53467 -3.07324,0.87793 -5.11279,4.03809 -4.6543,7.48926 l -15.87842,4.53516 c -0.45849,-3.45118 1.58106,-6.61182 4.6543,-7.48975 z"
         id="use7566" />
    </clipPath>
    <clipPath
       id="SVGID_98_">
      <path
         d="m 6.12646,107.22192 -15.87842,4.53516 c -3.61719,0.41602 -6.98975,-2.36328 -7.49609,-6.17578 l 15.87842,-4.53516 c 0.50635,3.81348 3.87891,6.5918 7.49609,6.17578 z"
         id="use7592" />
    </clipPath>
    <linearGradient
       x1="40.605217"
       y1="12.89941"
       x2="17.594276"
       y2="36.913795"
       id="linearGradient9780"
       xlink:href="#linearGradient5135"
       gradientUnits="userSpaceOnUse"
       gradientTransform="matrix(0.9637557,0,0,0.7931017,-1.7786882,-2.5602451)" />
  </defs>
  <g
     transform="matrix(1.2680625,0,0,1.2680625,-0.074106,11.579644)"
     id="g3177">
    <path
       d="m 24.424881,26.020489 c 2.009508,-0.708782 2.625288,-2.926039 3.531618,-4.751657 1.062023,-1.113794 1.980231,1.454865 4.051545,1.217263 1.426334,-0.162405 3.694776,-2.570638 2.811061,-4.138277 -1.942138,-1.699218 -3.325246,0.49569 -4.531188,-0.918009 -0.184112,-1.52294 4.010533,-2.621164 3.027396,-3.732523 C 31.521682,12.364662 28.180769,12.712184 24.971284,11.475761 23.539102,9.8575787 28.207477,10.531503 27.179999,8.9512998 26.75921,8.3167908 23.966234,6.7716003 20.79927,7.4366232 18.765448,8.1115726 21.155127,10.174904 17.977025,9.9610841 15.803788,9.6906903 12.110472,8.2737976 10.001116,8.9512991 8.3668072,10.069742 7.5582415,11.631424 7.4242843,12.18261 c -0.332092,1.706123 3.6074277,0.561742 4.1809617,1.006103 1.697299,1.399125 -1.9271108,3.13369 -2.9516624,2.54471 -0.4099508,-0.82499 -1.402807,-1.254576 -2.7666661,-0.96445 -1.3844367,0.08577 -3.7092857,4.209632 -3.0161875,5.293639 1.1617336,1.353652 7.451904,3.066425 9.008341,2.87229 2.036634,0.05236 0.918158,-0.840179 1.064435,-1.984026 0.313539,-1.455668 7.576276,0.610365 6.029579,1.59711 -2.070609,0.382212 -2.643022,1.091778 -1.883419,1.819454 1.376821,1.167016 6.171138,2.205385 7.335215,1.653049 z"
       id="path2220"
       style="fill:url(#linearGradient9780);fill-opacity:1;fill-rule:evenodd;stroke:#323232;stroke-width:0.41774637;stroke-linecap:butt;stroke-linejoin:miter;stroke-miterlimit:4;stroke-opacity:1;stroke-dasharray:none" />
    <use
       transform="translate(0.07178268,-0.3589134)"
       id="use2398"
       x="0"
       y="0"
       width="42.279999"
       height="42.279999"
       xlink:href="#path2220" />
  </g>
  <g
     transform="matrix(0.5038464,-0.02046911,0.02046911,0.5038464,-0.7055324,2.2453518)"
     id="butterfly">
    <g
       transform="matrix(1.2477534,0.28604239,-0.34807831,0.87012385,25.44213,33.786204)"
       id="shadow"
       style="opacity:0.6;fill-opacity:0.5">
      <path
         d="m 28.824673,13.73452 c 0.706975,-0.42358 1.472445,-0.70395 2.231863,-0.991884 0.762949,-0.280369 1.535478,-0.530483 2.311537,-0.770008 1.549093,-0.494681 3.123903,-0.910193 4.723927,-1.265697 1.60557,-0.344411 3.222234,-0.646968 4.971519,-0.624781 0.440725,0.01261 0.892039,0.04841 1.372601,0.160356 0.470981,0.120518 1.019618,0.287429 1.521863,0.817408 0.243558,0.262216 0.435178,0.630832 0.504262,0.996926 0.07312,0.366094 0.04841,0.706975 -0.0081,1.00096 -0.06152,0.300036 -0.141194,0.542586 -0.254653,0.805811 -0.09329,0.217337 -0.183551,0.397358 -0.276335,0.598054 -0.753368,1.558171 -1.746764,2.945395 -2.758313,4.266058 -0.51586,0.653019 -1.051891,1.279312 -1.582375,1.899555 l -0.397358,0.461399 -0.101861,0.117493 -0.14674,0.158843 c -0.100348,0.101861 -0.203218,0.202209 -0.310121,0.293985 -0.426606,0.372145 -0.884476,0.651506 -1.326209,0.859766 -0.882963,0.419042 -1.689278,0.648986 -2.346836,0.919774 -0.330796,0.132117 -0.617721,0.271293 -0.85775,0.419546 -0.179013,0.108417 -0.460895,0.337352 -0.681762,0.545108 -0.454844,0.429631 -0.826485,0.947508 -1.161315,1.559178 -0.169936,0.30407 -0.328779,0.630831 -0.484092,0.97373 l -0.230952,0.529979 -0.151783,0.340377 c -0.06051,0.116989 -0.116988,0.239524 -0.183551,0.350966 -0.523424,0.914227 -1.217793,1.612126 -1.921742,2.19354 -0.712018,0.578893 -1.455805,1.039284 -2.190515,1.460343 -0.741265,0.416016 -1.472949,0.772529 -2.186984,1.141145 -0.744761,0.381222 -1.511744,0.743282 -2.310495,1.051386 -0.790178,0.300036 -1.652466,0.556705 -2.468866,0.716556 -0.388282,0.08119 -0.820939,0.175483 -1.271245,0.227422 -0.455348,0.04538 -0.934902,0.08825 -1.517324,-0.07413 -0.290959,-0.08976 -0.608644,-0.241542 -0.871365,-0.581414 l -0.06656,-0.09631 -0.0711,-0.130604 c -0.04085,-0.08371 -0.06757,-0.158847 -0.09026,-0.23146 -0.04236,-0.141698 -0.06757,-0.270789 -0.08371,-0.390803 -0.06303,-0.479554 -0.0474,-0.899604 -0.03832,-1.309065 0.01008,-0.372649 0.0076,-0.837075 0.05446,-1.249561 0.04185,-0.422067 0.100348,-0.837579 0.180525,-1.24704 0.313147,-1.640868 0.913219,-3.170799 1.541529,-4.667449 0.642934,-1.494633 1.395797,-2.935813 2.250522,-4.310936 1.71449,-2.741672 3.93879,-5.184822 6.683984,-6.924522 z"
         id="path56-7"
         style="fill:#333333;fill-opacity:0.50196078;display:inline" />
      <path
         d="m 17.790796,14.460489 c 0.484091,1.429078 0.80581,2.911104 0.940953,4.409771 0.138167,1.499171 0.09177,3.010948 -0.08421,4.507598 -0.182543,1.49665 -0.500732,2.97918 -0.940449,4.431959 -0.452827,1.444206 -0.970704,2.891438 -1.833497,4.218656 -0.216832,0.329787 -0.459382,0.648985 -0.732692,0.952046 -0.229439,0.262217 -0.477536,0.580406 -0.813879,0.874895 -0.09026,0.07463 -0.182543,0.15027 -0.3076,0.223388 -0.110433,0.07211 -0.336847,0.151279 -0.468459,0.163885 -0.38072,0.04639 -0.658569,-0.04841 -0.902127,-0.151783 -0.471989,-0.220362 -0.797238,-0.507287 -1.103326,-0.788161 -0.298523,-0.282891 -0.565781,-0.564269 -0.825981,-0.835562 -0.131612,-0.141698 -0.274822,-0.311634 -0.407948,-0.467451 -0.124048,-0.157834 -0.25566,-0.313147 -0.3736579,-0.474511 -0.483083,-0.641925 -0.908176,-1.321166 -1.29444,-1.99486 -0.7236163,-1.294945 -1.5828788,-2.659982 -1.9812458,-4.428933 -0.090263,-0.44476 -0.1432104,-0.918262 -0.1306038,-1.414455 0.00656,-0.244063 0.035803,-0.511826 0.074631,-0.746308 l 0.08169,-0.531997 C 6.7908241,21.71934 6.8321736,21.08397 6.7741835,20.496505 6.7494747,20.202016 6.700057,19.917108 6.6254262,19.636234 6.5896236,19.496553 6.5452485,19.352839 6.4958309,19.220218 6.4559942,19.120878 6.4101063,19.020026 6.3445523,18.894464 6.0994809,18.41239 5.681952,17.868796 5.2114755,17.214768 4.748563,16.565278 4.2261476,15.745853 3.970991,14.710098 3.9387182,14.58252 3.9140094,14.451916 3.8908133,14.320808 L 3.845934,14.036404 3.763235,13.475161 3.603384,12.342084 C 3.4026877,10.823751 3.2584688,9.2716328 3.247375,7.6988396 3.2478793,6.9121908 3.2776307,6.1220122 3.3462103,5.3318337 L 3.405209,4.7302491 C 3.4314306,4.5119036 3.4697546,4.2683451 3.5221978,4.0414272 3.6371695,3.5775061 3.7980291,3.0626546 4.2185836,2.5447775 4.4263396,2.2911338 4.7223414,2.051105 5.0566671,1.9053733 5.3914971,1.7561118 5.7409506,1.7066941 6.0455249,1.7132495 6.657699,1.7344285 7.1185945,1.9194927 7.5280552,2.112625 c 0.8083319,0.4029053 1.4346259,0.9091844 2.0346969,1.4290785 1.1824949,1.0503778 2.1960609,2.2000952 3.1622269,3.3815811 0.962132,1.1829987 1.883419,2.3876806 2.739152,3.6382504 0.432657,0.620746 0.855732,1.248553 1.253091,1.892495 0.396854,0.643943 0.801272,1.286877 1.073574,2.006459 z"
         id="path118-4"
         style="fill:#333333;fill-opacity:0.50196078;display:inline" />
    </g>
    <path
       d="m 58.151,21.486999 c -5.571001,1.017 -9.579001,5.756 -11.209001,10.957001"
       id="path32"
       style="fill:none;stroke:#666666;stroke-linecap:round;stroke-miterlimit:10;display:inline" />
    <circle
       cx="58.151001"
       cy="21.487"
       r="0.75199997"
       id="circle36"
       style="fill:#666666;display:inline" />
    <path
       d="m 43.415999,18.337999 c 5.128,3.359 3.23,9.021 3.023,14.232001"
       id="path42"
       style="fill:none;stroke:#666666;stroke-linecap:round;stroke-miterlimit:10;display:inline" />
    <circle
       cx="43.416"
       cy="18.337999"
       r="0.75199997"
       id="circle46"
       style="fill:#666666;display:inline" />
    <path
       d="m 47.182,31.385 c -0.035,-0.026 -0.068,-0.051 -0.067,-0.053 0.917,0.691 1.639,2.04 1.126,3.182 -0.457,1.018 -1.834,0.916 -2.337,1.886 -0.635,1.224 0.695,2.549 0.069,3.795 -0.609,1.213 -2.434,1.623 -2.253,3.232 0.074,0.657 0.399,1.268 0.416,1.933 0.012,0.46 -0.088,0.938 -0.148,1.394 -0.243,1.848 -4.971,17.096 -7.979,14.627 -2.196,-1.802 -0.902,-6.301 -0.329,-8.535 0.977,-3.811 2.766,-7.056 4.943,-10.312 1.065,-1.593 -0.78,-3.521 0.268,-5.147 0.624,-0.968 1.914,-1.008 2.63,-1.822 0.987,-1.122 -0.336,-2.543 0.908,-3.563 0.625,-0.514 2.141,-1.056 2.833,-0.56 10e-4,0.002 -0.041,-0.028 -0.08,-0.057 z"
       id="path48"
       style="fill:#333333;stroke:#4d4d4d;stroke-miterlimit:10;display:inline" />
    <g
       id="wing_left">
      <path
         d="m 38.903,28.286 c 3.791,9.962 2.064,20.88 -1.544,29.274 -1.029,2.396 -2.452,4.96 -4.293,6.742 -0.524,0.509 -1.617,1.761 -2.385,1.951 -1.475,0.362 -3.188,-1.813 -3.957,-2.69 -1.661,-1.896 -2.906,-4.046 -4.005,-6.295 -1.596,-3.262 -4.067,-7.75 -3.254,-11.657 0.6,-2.879 0.964,-5.561 0.029,-8.6 -1.059,-3.442 -4.486,-5.835 -5.099,-9.562 -0.906,-5.503 -1.92,-11.78 -1.547,-18.092 0.893,-15.075 23.935,13.359 26.055,18.929 z"
         id="path116"
         style="fill:#4ca5e6;display:inline" />
      <path
         d="m 39.022,28.241 c 0.96,2.834 1.598,5.773 1.866,8.745 0.274,2.973 0.182,5.971 -0.167,8.939 -0.362,2.968 -0.993,5.908 -1.865,8.789 -0.898,2.864 -1.925,5.734 -3.636,8.366 -0.43,0.654 -0.911,1.287 -1.453,1.888 -0.455,0.52 -0.947,1.151 -1.614,1.735 -0.179,0.148 -0.362,0.298 -0.61,0.443 -0.219,0.143 -0.668,0.3 -0.929,0.325 -0.755,0.092 -1.306,-0.096 -1.789,-0.301 -0.936,-0.437 -1.581,-1.006 -2.188,-1.563 -0.592,-0.561 -1.122,-1.119 -1.638,-1.657 -0.261,-0.281 -0.545,-0.618 -0.809,-0.927 -0.246,-0.313 -0.507,-0.621 -0.741,-0.941 -0.958,-1.273 -1.801,-2.62 -2.567,-3.956 -1.435,-2.568 -3.139,-5.275 -3.929,-8.783 -0.179,-0.882 -0.284,-1.821 -0.259,-2.805 0.013,-0.484 0.071,-1.015 0.148,-1.48 l 0.162,-1.055 c 0.204,-1.367 0.286,-2.627 0.171,-3.792 -0.049,-0.584 -0.147,-1.149 -0.295,-1.706 -0.071,-0.277 -0.159,-0.562 -0.257,-0.825 -0.079,-0.197 -0.17,-0.397 -0.3,-0.646 C 15.837,36.078 15.009,35 14.076,33.703 13.158,32.415 12.122,30.79 11.616,28.736 11.552,28.483 11.503,28.224 11.457,27.964 L 11.368,27.4 11.204,26.287 10.887,24.04 c -0.398,-3.011 -0.684,-6.089 -0.706,-9.208 0.001,-1.56 0.06,-3.127 0.196,-4.694 l 0.117,-1.193 c 0.052,-0.433 0.128,-0.916 0.232,-1.366 0.228,-0.92 0.547,-1.941 1.381,-2.968 0.412,-0.503 0.999,-0.979 1.662,-1.268 0.664,-0.296 1.357,-0.394 1.961,-0.381 1.214,0.042 2.128,0.409 2.94,0.792 1.603,0.799 2.845,1.803 4.035,2.834 2.345,2.083 4.355,4.363 6.271,6.706 1.908,2.346 3.735,4.735 5.432,7.215 0.858,1.231 1.697,2.476 2.485,3.753 0.787,1.277 1.589,2.552 2.129,3.979 z M 38.784,28.33 C 37.468,25.696 35.52,23.384 33.635,21.105 31.686,18.861 29.664,16.683 27.514,14.654 25.36,12.638 23.114,10.706 20.749,9.119 19.575,8.339 18.34,7.633 17.196,7.251 16.637,7.061 16.091,6.983 15.806,7.041 15.507,7.127 15.644,7.144 15.553,7.289 15.471,7.452 15.34,7.902 15.287,8.437 15.254,8.72 15.241,8.978 15.234,9.289 l 0.003,1.041 c 0.019,1.414 0.107,2.833 0.249,4.253 0.258,2.843 0.697,5.696 1.189,8.584 l 0.375,2.175 0.196,1.095 0.093,0.542 c 0.022,0.107 0.041,0.214 0.071,0.323 0.204,0.862 0.78,1.823 1.567,2.966 0.775,1.144 1.805,2.427 2.648,4.151 0.199,0.42 0.4,0.907 0.567,1.415 0.141,0.442 0.255,0.877 0.353,1.327 0.198,0.894 0.315,1.81 0.353,2.715 0.064,1.818 -0.2,3.545 -0.535,5.109 -0.085,0.406 -0.181,0.79 -0.27,1.14 -0.068,0.266 -0.113,0.475 -0.147,0.736 -0.062,0.505 -0.06,1.063 0.006,1.653 0.236,2.409 1.384,5.062 2.567,7.825 0.545,1.343 1.127,2.624 1.808,3.846 0.165,0.31 0.353,0.599 0.528,0.901 0.187,0.285 0.347,0.549 0.555,0.847 0.441,0.607 0.867,1.194 1.293,1.725 0.417,0.519 0.875,0.991 1.268,1.247 0.179,0.128 0.37,0.172 0.362,0.195 0.112,-0.004 0.021,0.029 0.132,-10e-4 0.083,-0.027 0.204,-0.097 0.324,-0.17 0.513,-0.333 1.024,-0.815 1.626,-1.347 0.524,-0.443 1.012,-0.951 1.472,-1.493 1.846,-2.182 3.177,-4.876 4.28,-7.616 0.559,-1.373 1.029,-2.782 1.426,-4.215 0.408,-1.429 0.729,-2.885 0.957,-4.356 0.938,-5.863 0.538,-12.06 -1.766,-17.572 z"
         id="path118"
         style="fill:#333333;display:inline" />
      <path
         d="m 16.884,10.399 c 1.302,1.109 2.759,1.759 4.294,2.356 0.77,0.296 1.556,0.587 2.354,0.925 0.799,0.321 1.626,0.795 2.365,1.28 1.487,1.028 2.704,2.329 3.799,3.635 1.118,1.285 2.125,2.729 2.958,4.225 l 2.48,4.479 c 0.831,1.48 1.742,2.983 2.45,4.509 0.706,1.543 1.232,3.194 1.543,4.909 0.299,1.707 0.374,3.519 -0.118,5.199 -0.016,0.054 -0.073,0.085 -0.127,0.07 -0.039,-0.012 -0.066,-0.045 -0.072,-0.083 -0.278,-1.689 -0.674,-3.255 -1.188,-4.813 -0.5,-1.558 -1.114,-3.085 -1.596,-4.693 -0.479,-1.626 -0.75,-3.287 -1.471,-4.803 -0.699,-1.517 -1.67,-2.898 -2.791,-4.135 -2.279,-2.397 -4.577,-4.906 -7.1,-6.757 -0.637,-0.489 -1.266,-0.871 -1.986,-1.28 -0.715,-0.403 -1.466,-0.802 -2.205,-1.257 -1.477,-0.882 -2.939,-2.084 -3.743,-3.636 l -0.003,-0.005 c -0.026,-0.05 -0.006,-0.111 0.043,-0.137 0.039,-0.02 0.084,-0.013 0.114,0.012 z"
         id="path124"
         style="fill:#50c0e0;display:inline" />
      <path
         d="m 16.509,18.245 c 0.164,-1.283 1.196,-2.367 2.407,-2.839 0.611,-0.239 1.272,-0.276 1.897,-0.242 0.628,0.012 1.238,0.189 1.792,0.463 0.557,0.265 1.075,0.497 1.639,0.599 0.557,0.112 1.214,0.028 1.809,0.175 0.591,0.148 1.08,0.528 1.507,0.952 0.41,0.447 0.771,0.961 0.896,1.63 0.012,0.065 -0.031,0.129 -0.097,0.141 -0.014,0.003 -0.032,0.002 -0.045,0 -0.655,-0.115 -1.149,-0.308 -1.646,-0.495 -0.479,-0.21 -0.948,-0.391 -1.349,-0.73 -0.397,-0.34 -0.77,-0.837 -1.268,-1.057 -0.491,-0.229 -1.054,-0.247 -1.593,-0.13 -0.542,0.125 -1.042,0.252 -1.517,0.338 -0.478,0.109 -0.914,0.271 -1.352,0.382 -0.894,0.215 -1.74,0.47 -2.926,0.941 -0.058,0.023 -0.124,-0.006 -0.147,-0.064 -0.007,-0.018 -0.009,-0.038 -0.007,-0.056 l 0,-0.008 z"
         id="path128"
         style="fill:#50c0e0;display:inline" />
      <path
         d="m 16.773,20.924 c 1.27,-0.114 2.48,-0.196 3.736,-0.223 1.249,-0.021 2.549,0.044 3.857,0.382 1.303,0.344 2.563,1.046 3.566,1.972 0.503,0.457 0.961,0.97 1.327,1.511 0.354,0.502 0.672,1.06 1.002,1.604 0.63,1.094 1.28,2.148 2.047,3.123 0.764,0.975 1.722,1.825 2.508,2.785 0.393,0.479 0.754,0.979 1.067,1.509 0.33,0.519 0.644,1.047 0.943,1.583 0.593,1.08 1.165,2.166 1.619,3.37 0.021,0.054 -0.006,0.114 -0.06,0.135 -0.033,0.013 -0.07,0.006 -0.097,-0.012 C 37.228,37.92 36.361,37 35.553,36.049 35.148,35.573 34.774,35.076 34.415,34.572 34.04,34.077 33.718,33.551 33.427,33.003 32.845,31.91 32.429,30.71 31.777,29.665 31.129,28.619 30.32,27.682 29.418,26.842 l -1.365,-1.24 c -0.435,-0.397 -0.85,-0.763 -1.306,-1.083 -0.906,-0.645 -1.91,-1.043 -2.975,-1.381 -2.112,-0.712 -4.691,-0.919 -7.033,-2.016 -0.052,-0.024 -0.074,-0.086 -0.05,-0.138 0.016,-0.035 0.049,-0.056 0.084,-0.06 z"
         id="path132"
         style="fill:#50c0e0;display:inline" />
      <path
         d="m 20.111,26.942 c 0.142,-0.572 0.599,-1.054 1.15,-1.305 0.55,-0.267 1.164,-0.334 1.697,-0.256 0.54,0.08 1.002,0.318 1.436,0.527 0.447,0.208 0.763,0.61 1.185,0.823 0.393,0.225 0.855,0.326 1.322,0.256 0.471,-0.073 0.958,-0.301 1.426,-0.316 0.915,0.045 1.892,0.338 2.661,1.207 0.044,0.05 0.039,0.126 -0.011,0.17 -0.01,0.009 -0.021,0.016 -0.034,0.021 l -0.005,0.002 c -1.028,0.422 -1.896,0.518 -2.815,0.34 -0.45,-0.123 -0.882,-0.456 -1.327,-0.655 -0.449,-0.197 -0.9,-0.241 -1.411,-0.219 -0.481,0.012 -1.045,0.125 -1.486,0.077 -0.454,-0.049 -0.887,-0.05 -1.262,-0.109 -0.774,-0.126 -1.254,-0.416 -2.404,-0.404 -0.069,0.001 -0.125,-0.054 -0.126,-0.123 0,-0.011 0.001,-0.021 0.003,-0.031 l 0.001,-0.005 z"
         id="path136"
         style="fill:#50c0e0;display:inline" />
      <path
         d="m 21.789,31.695 c 1.299,-0.645 2.736,-0.677 4.062,-0.451 0.664,0.128 1.288,0.394 1.894,0.667 0.613,0.256 1.181,0.617 1.718,1.031 0.539,0.406 1.098,0.738 1.719,0.919 0.619,0.185 1.334,0.13 1.974,0.245 0.639,0.117 1.198,0.421 1.756,0.732 0.548,0.34 1.088,0.696 1.589,1.247 0.043,0.047 0.041,0.121 -0.007,0.164 -0.015,0.014 -0.033,0.023 -0.051,0.027 -0.729,0.181 -1.406,0.124 -2.064,0.025 -0.648,-0.127 -1.287,-0.289 -1.841,-0.646 -0.553,-0.36 -1.026,-0.901 -1.599,-1.197 -0.57,-0.3 -1.204,-0.444 -1.866,-0.494 -0.664,-0.042 -1.305,-0.116 -1.913,-0.256 -0.615,-0.123 -1.226,-0.215 -1.811,-0.389 -1.17,-0.378 -2.293,-0.778 -3.564,-1.425 -0.055,-0.028 -0.076,-0.095 -0.048,-0.149 0.011,-0.021 0.032,-0.039 0.052,-0.05 z"
         id="path140"
         style="fill:#50c0e0;display:inline" />
      <path
         d="m 23.97,36.598 c 1.192,-0.688 2.326,-1.159 3.704,-1.289 0.669,-0.057 1.427,0.076 2.06,0.285 0.697,0.196 1.285,0.538 1.822,0.966 0.535,0.419 1.046,0.797 1.634,1.046 0.58,0.257 1.29,0.324 1.893,0.566 0.602,0.244 1.074,0.667 1.529,1.1 0.439,0.458 0.854,0.932 1.18,1.584 0.029,0.058 0.006,0.128 -0.052,0.157 -0.017,0.009 -0.036,0.013 -0.054,0.013 -0.735,-0.004 -1.357,-0.224 -1.95,-0.466 -0.577,-0.269 -1.132,-0.553 -1.572,-0.996 -0.438,-0.444 -0.785,-1.042 -1.292,-1.397 -0.499,-0.364 -1.105,-0.544 -1.727,-0.593 -0.619,-0.041 -1.228,-0.07 -1.753,-0.122 -0.59,-0.04 -1.084,0.009 -1.662,-0.008 -1.118,-0.063 -2.449,-0.061 -3.75,-0.646 -0.057,-0.025 -0.082,-0.092 -0.057,-0.148 0.011,-0.023 0.028,-0.041 0.047,-0.052 z"
         id="path144"
         style="fill:#50c0e0;display:inline" />
      <path
         d="m 27.999,61.988 c 1.371,-0.466 2,-1.19 2.788,-2.041 l 1.246,-1.292 c 0.403,-0.472 0.865,-0.93 1.361,-1.389 0.489,-0.464 0.892,-0.994 1.141,-1.604 0.253,-0.609 0.266,-1.34 0.456,-1.987 0.192,-0.646 0.576,-1.202 1.001,-1.741 0.449,-0.518 0.963,-1.037 1.686,-1.322 0.059,-0.023 0.125,0.006 0.149,0.064 0.007,0.02 0.009,0.044 0.006,0.063 -0.104,0.74 -0.284,1.347 -0.49,1.97 -0.229,0.604 -0.458,1.213 -0.873,1.735 -0.417,0.522 -1.004,0.964 -1.365,1.52 -0.366,0.555 -0.591,1.182 -0.767,1.855 -0.169,0.677 -0.407,1.335 -0.769,1.936 -0.345,0.608 -0.737,1.225 -1.296,1.726 -0.558,0.491 -1.257,0.907 -2.045,1.079 -0.781,0.178 -1.646,0.073 -2.255,-0.372 l -0.005,-0.004 c -0.049,-0.036 -0.06,-0.106 -0.024,-0.155 0.015,-0.02 0.034,-0.033 0.055,-0.041 z"
         id="path148"
         style="fill:#50c0e0;display:inline" />
      <path
         d="m 26.319,58.746 c 1.395,-0.514 2.398,-0.984 3.349,-1.631 0.479,-0.309 0.998,-0.603 1.509,-0.967 0.496,-0.376 1.045,-0.742 1.63,-1.107 0.581,-0.369 1.09,-0.821 1.477,-1.375 0.39,-0.551 0.592,-1.275 0.98,-1.871 0.388,-0.594 0.965,-1.036 1.585,-1.407 0.636,-0.347 1.339,-0.622 2.123,-0.594 0.063,0.002 0.113,0.056 0.11,0.119 0,0.021 -0.008,0.042 -0.019,0.059 -0.411,0.645 -0.827,1.127 -1.234,1.626 -0.425,0.476 -0.818,0.966 -1.356,1.346 -0.538,0.378 -1.217,0.67 -1.698,1.142 -0.484,0.469 -0.837,1.048 -1.148,1.684 -0.307,0.64 -0.68,1.254 -1.18,1.78 -0.483,0.538 -1.037,1.069 -1.726,1.425 -1.379,0.71 -3.14,0.77 -4.418,-0.028 l -0.004,-0.003 c -0.052,-0.032 -0.067,-0.1 -0.035,-0.151 0.013,-0.023 0.033,-0.039 0.055,-0.047 z"
         id="path152"
         style="fill:#50c0e0;display:inline" />
      <path
         d="m 24.778,54.702 c 1.247,-0.429 2.144,-0.833 3.155,-1.222 0.498,-0.188 1.031,-0.312 1.57,-0.473 0.528,-0.18 1.096,-0.308 1.694,-0.419 0.594,-0.118 1.153,-0.33 1.606,-0.705 0.46,-0.366 0.763,-0.959 1.166,-1.396 0.404,-0.436 0.924,-0.707 1.46,-0.969 0.553,-0.234 1.127,-0.451 1.83,-0.48 0.066,-0.003 0.122,0.048 0.125,0.113 0,0.018 -0.003,0.034 -0.008,0.049 -0.256,0.653 -0.634,1.129 -1.036,1.582 -0.419,0.428 -0.857,0.84 -1.419,1.075 -0.565,0.234 -1.237,0.301 -1.769,0.568 -0.538,0.26 -0.985,0.659 -1.417,1.117 -0.428,0.465 -0.906,0.879 -1.45,1.186 -0.533,0.326 -1.097,0.634 -1.725,0.793 -1.229,0.299 -2.733,0.242 -3.812,-0.623 -0.05,-0.037 -0.061,-0.107 -0.024,-0.158 0.013,-0.016 0.035,-0.031 0.054,-0.038 z"
         id="path156"
         style="fill:#50c0e0;display:inline" />
      <path
         d="m 23.039,50.548 c 0.561,-0.278 1.157,-0.334 1.679,-0.304 0.531,0.036 1.022,0.146 1.446,0.377 0.418,0.251 0.83,0.457 1.207,0.787 0.206,0.163 0.354,0.37 0.574,0.446 0.164,0.088 0.413,0.13 0.637,0.127 0.968,0.064 1.727,-0.927 2.669,-1.148 0.478,-0.112 0.979,-0.184 1.511,-0.158 0.518,0.019 1.105,0.105 1.601,0.464 0.052,0.037 0.063,0.11 0.026,0.162 -0.009,0.013 -0.021,0.022 -0.033,0.03 l -0.011,0.007 c -0.919,0.563 -1.693,0.984 -2.652,1.24 -0.469,0.126 -0.996,0.077 -1.524,0.013 -0.532,-0.071 -1.034,-0.072 -1.543,0.005 -0.495,0.089 -1.14,0.104 -1.671,0.184 -0.558,0.048 -1.062,-0.09 -1.554,-0.193 -0.488,-0.122 -0.901,-0.38 -1.289,-0.679 -0.396,-0.304 -0.73,-0.662 -1.121,-1.166 -0.043,-0.055 -0.033,-0.135 0.022,-0.178 0.007,-0.005 0.014,-0.01 0.021,-0.013 l 0.005,-0.003 z"
         id="path160"
         style="fill:#50c0e0;display:inline" />
      <path
         d="m 23.14,47.608 c 0.989,-0.801 2.24,-0.993 3.353,-0.942 0.564,0.036 1.099,0.2 1.621,0.364 0.526,0.143 1.025,0.379 1.519,0.654 0.494,0.267 1.01,0.447 1.543,0.423 0.534,-0.012 1.067,-0.311 1.556,-0.455 0.491,-0.142 0.97,-0.109 1.471,-0.105 0.507,0.034 1.019,0.054 1.654,0.209 0.066,0.015 0.107,0.08 0.092,0.146 -0.003,0.014 -0.009,0.028 -0.016,0.039 -0.359,0.562 -0.881,0.892 -1.427,1.134 -0.552,0.214 -1.146,0.356 -1.728,0.244 -0.585,-0.113 -1.126,-0.46 -1.662,-0.569 -0.537,-0.12 -1.086,-0.086 -1.653,0.016 -0.568,0.11 -1.127,0.162 -1.66,0.129 -0.538,-0.012 -1.064,-0.015 -1.567,-0.108 -1.016,-0.207 -1.932,-0.501 -3.071,-0.98 -0.059,-0.025 -0.086,-0.092 -0.062,-0.151 0.008,-0.019 0.022,-0.036 0.037,-0.048 z"
         id="path164"
         style="fill:#50c0e0;display:inline" />
      <path
         d="m 23.423,43.371 c 0.421,-0.628 1.179,-1.026 1.952,-1.167 0.781,-0.149 1.565,-0.06 2.266,0.129 0.703,0.198 1.313,0.552 1.889,0.891 0.58,0.321 1.112,0.715 1.638,1.143 0.531,0.421 1.11,0.75 1.75,0.902 0.639,0.157 1.355,0.043 2.003,0.085 0.649,0.045 1.244,0.264 1.853,0.48 0.604,0.247 1.209,0.498 1.826,0.943 0.052,0.037 0.064,0.109 0.028,0.161 -0.012,0.017 -0.029,0.03 -0.046,0.039 -0.697,0.318 -1.399,0.383 -2.092,0.389 -0.688,-0.024 -1.381,-0.099 -2.005,-0.402 -0.625,-0.305 -1.169,-0.811 -1.778,-1.085 -0.608,-0.278 -1.263,-0.418 -1.953,-0.498 -0.695,-0.073 -1.372,-0.209 -1.995,-0.431 -0.627,-0.2 -1.23,-0.372 -1.782,-0.586 -1.124,-0.436 -2.016,-0.852 -3.461,-0.815 -0.062,10e-4 -0.112,-0.047 -0.114,-0.108 0,-0.024 0.006,-0.046 0.019,-0.065 l 0.002,-0.005 z"
         id="path168"
         style="fill:#50c0e0;display:inline" />
      <path
         d="m 41.033,40.253 c -0.84,-0.349 -1.728,-0.21 -2.535,0.078 -0.815,0.276 -1.643,0.689 -2.61,0.83 -0.98,0.152 -1.953,0.034 -2.847,-0.107 -0.918,-0.153 -1.688,-0.263 -2.569,-0.295 -1.64,-0.062 -3.354,0.148 -5.103,0.379 -1.756,0.228 -3.598,0.48 -5.578,0.443 l -0.036,0 c -1.11,-0.021 -1.994,-0.938 -1.973,-2.048 0.021,-1.11 0.938,-1.994 2.048,-1.973 0.127,0.002 0.262,0.019 0.383,0.044 1.551,0.332 3.265,0.435 5.048,0.536 1.789,0.104 3.638,0.211 5.516,0.642 1.871,0.38 3.447,1.335 5.032,1.382 0.813,0.044 1.667,-0.188 2.572,-0.319 0.893,-0.147 1.901,-0.097 2.652,0.408 z"
         id="path172"
         style="fill:#333333;display:inline" />
    </g>
    <g
       id="wing_right">
      <path
         d="M 57.18,28.155999 C 47.876,33.681 41.778,43.705 38.556,53.816 c -0.988,3.103 -1.792,6.771 -1.589,10.051 0.059,0.954 0.021,3.194 0.58,4.011 1.09,1.59 4.554,0.461 6.013,0.073 3.134,-0.832 6.035,-2.268 8.824,-3.897 3.966,-2.317 9.545,-5.219 11.35,-9.734 1.276,-3.193 2.61,-5.946 5.349,-8.125 3.025,-2.407 7.652,-2.412 10.26,-5.262 3.698,-4.042 7.696,-8.441 10.229,-13.345001 5.482,-10.618 -27.452,-2.362 -32.392,0.568 z"
         id="path54"
         style="fill:#4ca5e6;display:inline" />
      <path
         d="M 57.245,28.263999 C 51.632,31.383 47.208,36.356 44.008,41.867 c -1.603,2.769 -2.911,5.702 -3.93,8.721 -1.036,3.012 -1.8,6.128 -2.079,9.229 -0.064,0.774 -0.103,1.547 -0.082,2.312 0.013,0.784 0.108,1.466 0.194,2.326 0.077,0.787 0.161,1.563 0.332,2.188 0.041,0.156 0.092,0.289 0.138,0.387 0.022,0.045 0.046,0.081 0.059,0.092 0.005,-0.001 0.008,0 0.009,0.001 -0.089,-0.122 -0.01,-0.018 -0.024,-0.037 l 0.025,0.028 0.049,0.057 c -0.006,-0.056 0.109,0.035 0.307,0.046 0.412,0.058 1.095,-0.027 1.764,-0.199 0.686,-0.17 1.375,-0.41 2.148,-0.678 1.482,-0.493 2.793,-1.081 4.15,-1.797 1.342,-0.696 2.653,-1.486 3.949,-2.336 1.352,-0.885 2.696,-1.744 3.947,-2.612 2.493,-1.706 4.79,-3.633 5.794,-5.679 0.07,-0.125 0.116,-0.252 0.179,-0.376 l 0.17,-0.431 0.459,-1.171 c 0.323,-0.792 0.678,-1.601 1.093,-2.414 0.831,-1.617 1.953,-3.25 3.364,-4.622 0.72,-0.694 1.396,-1.276 2.414,-1.889 0.898,-0.531 1.792,-0.924 2.629,-1.243 1.676,-0.636 3.175,-1.054 4.328,-1.588 0.572,-0.269 1.061,-0.528 1.442,-0.822 0.1,-0.072 0.187,-0.149 0.274,-0.225 l 0.126,-0.117 0.204,-0.209 0.832,-0.861 c 1.104,-1.14 2.181,-2.286 3.231,-3.433 2.13,-2.268 4.072,-4.635001 5.706,-7.145001 0.986,-1.451 1.052,-2.076 0.989,-2.164 -0.063,-0.175 -0.516,-0.512 -1.104,-0.72 -0.587,-0.223 -1.287,-0.379 -2.008,-0.49 -2.934,-0.417 -6.144,-0.258 -9.282,0.024 -3.156,0.304 -6.305,0.841 -9.432,1.482 -1.559,0.341 -3.107,0.729 -4.644,1.163 -1.524,0.448 -3.074,0.892 -4.483,1.599 z m -0.131,-0.217 c 1.402,-0.84 2.92,-1.396 4.426,-1.967 1.513,-0.556 3.045,-1.052 4.584,-1.527 3.072,-0.981 6.195,-1.805 9.368,-2.51 C 78.676,21.36 81.882,20.76 85.351,20.804 c 0.874,0.025 1.769,0.096 2.722,0.318 0.934,0.239 2.022,0.57 3.018,1.620999 0.483,0.52 0.863,1.251 1,1.977 0.145,0.726 0.096,1.402 -0.016,1.985 -0.122,0.595 -0.28,1.076 -0.505,1.598 -0.185,0.431 -0.364,0.788 -0.548,1.186 C 89.528,32.579 87.558,35.33 85.552,37.949 c -1.023,1.295 -2.086,2.537 -3.138,3.767 l -0.788,0.915 -0.202,0.233 -0.291,0.315 c -0.199,0.202 -0.403,0.401 -0.615,0.583 -0.846,0.738 -1.754,1.292 -2.63,1.705 -1.751,0.831 -3.35,1.287 -4.654,1.824 -0.656,0.262 -1.225,0.538 -1.701,0.832 -0.355,0.215 -0.914,0.669 -1.352,1.081 -0.902,0.852 -1.639,1.879 -2.303,3.092 -0.337,0.603 -0.652,1.251 -0.96,1.931 l -0.458,1.051 -0.301,0.675 c -0.12,0.232 -0.232,0.475 -0.364,0.696 -1.038,1.813 -2.415,3.197 -3.811,4.35 -1.412,1.148 -2.887,2.061 -4.344,2.896 -1.47,0.825 -2.921,1.532 -4.337,2.263 -1.477,0.756 -2.998,1.474 -4.582,2.085 -1.567,0.595 -3.277,1.104 -4.896,1.421 -0.77,0.161 -1.628,0.348 -2.521,0.451 -0.903,0.09 -1.854,0.175 -3.009,-0.147 -0.577,-0.178 -1.207,-0.479 -1.728,-1.153 L 36.435,68.624 36.294,68.365 C 36.213,68.199 36.16,68.05 36.115,67.906 36.031,67.625 35.981,67.369 35.949,67.131 35.824,66.18 35.855,65.347 35.873,64.535 c 0.02,-0.739 0.015,-1.66 0.108,-2.478 0.083,-0.837 0.199,-1.661 0.358,-2.473 0.621,-3.254 1.811,-6.288 3.057,-9.256 1.275,-2.964 2.768,-5.822 4.463,-8.549 3.4,-5.437 7.811,-10.282 13.255,-13.732001 z"
         id="path56"
         style="fill:#333333;display:inline" />
      <path
         d="m 85.505,26.495999 c -1.578,0.769 -3.448,0.899 -5.165,0.819 -0.867,-0.031 -1.716,-0.111 -2.541,-0.172 -0.836,-0.058 -1.583,-0.094 -2.396,-0.057 -3.172,0.082 -6.517,0.729 -9.794,1.314 -1.644,0.333 -3.259,0.854 -4.734,1.655 C 59.383,30.827 58.145,32.008 56.761,32.99 c -1.37,0.98 -2.795,1.821 -4.152,2.752 -1.375,0.917 -2.652,1.923 -3.948,3.057 -0.042,0.038 -0.106,0.035 -0.145,-0.007 -0.027,-0.03 -0.032,-0.074 -0.018,-0.109 0.692,-1.609 1.859,-2.994 3.15,-4.157 1.3,-1.168 2.729,-2.161 4.241,-2.954 1.512,-0.767 3.132,-1.416001 4.7,-2.099001 l 4.686,-2.115 c 1.568,-0.709 3.231,-1.276 4.903,-1.658 1.659,-0.411 3.405,-0.75 5.205,-0.747 0.88,0.025 1.826,0.094 2.667,0.268 0.854,0.159 1.676,0.35 2.487,0.531 1.626,0.356 3.21,0.667 4.92,0.549 0.056,-0.004 0.104,0.038 0.108,0.094 0.003,0.042 -0.021,0.081 -0.057,0.098 l -0.003,0.003 z"
         id="path62"
         style="fill:#50c0e0;display:inline" />
      <path
         d="m 81.857,32.341 c -0.837,-0.952 -1.502,-1.535 -2.219,-2.149001 -0.35,-0.306 -0.672,-0.661 -1.048,-0.994 -0.385,-0.312 -0.765,-0.677 -1.172,-1.063 -0.41,-0.379 -0.898,-0.662 -1.439,-0.733 -0.541,-0.083 -1.129,0.129 -1.656,0.189 -0.529,0.058 -1.026,-0.059 -1.545,-0.161 -0.521,-0.132 -1.04,-0.262 -1.639,-0.554 -0.061,-0.028 -0.087,-0.1 -0.06,-0.16 0.007,-0.014 0.017,-0.027 0.026,-0.037 0.495,-0.468 1.084,-0.675 1.672,-0.806 0.59,-0.102 1.199,-0.14 1.769,0.065 0.57,0.208 1.071,0.636 1.601,0.841 0.528,0.217 1.092,0.293 1.7,0.348 0.612,0.047 1.22,0.194 1.767,0.481 0.556,0.267 1.109,0.599 1.541,1.08 0.849,0.947 1.339,2.372001 0.897,3.608001 l -0.003,0.008 c -0.021,0.059 -0.086,0.09 -0.146,0.069 -0.017,-0.007 -0.033,-0.019 -0.046,-0.032 z"
         id="path66"
         style="fill:#50c0e0;display:inline" />
      <path
         d="m 80.406,34.426 c -2.651,-0.344 -5.047,-1.518 -7.332,-2.118 -1.141,-0.32 -2.261,-0.569 -3.429,-0.58 -0.583,-0.006 -1.165,0.047 -1.768,0.117 l -1.906,0.211 c -1.272,0.151 -2.526,0.438 -3.717,0.903 -1.194,0.462 -2.29,1.194 -3.454,1.744 -1.163,0.551 -2.403,0.908 -3.659,1.225 -1.261,0.296 -2.55,0.532 -3.89,0.516 -0.058,0 -0.104,-0.048 -0.104,-0.105 0.001,-0.036 0.021,-0.069 0.049,-0.087 1.126,-0.716 2.28,-1.264 3.446,-1.792 1.173,-0.507 2.347,-1.013 3.598,-1.325 1.25,-0.313 2.571,-0.438 3.809,-0.788 1.241,-0.345 2.436,-0.824 3.637,-1.347 0.611,-0.250001 1.22,-0.517001 1.825,-0.717001 0.646,-0.223 1.335,-0.367 2.032,-0.442 1.395,-0.155 2.85,-0.015 4.155,0.424 1.31,0.44 2.481,1.083001 3.579,1.772001 1.098,0.697 2.14,1.417 3.202,2.203 0.046,0.034 0.056,0.099 0.021,0.145 -0.021,0.032 -0.059,0.046 -0.094,0.041 z"
         id="path70"
         style="fill:#50c0e0;display:inline" />
      <path
         d="m 74.056,37.272 c -0.999,-0.615 -1.63,-0.656 -2.409,-0.988 -0.378,-0.158 -0.763,-0.404 -1.191,-0.613 -0.416,-0.199 -0.851,-0.604 -1.261,-0.886 -0.437,-0.308 -0.857,-0.526 -1.359,-0.614 -0.497,-0.085 -1.063,-0.036 -1.532,-0.176 -0.915,-0.349 -1.64,-0.917 -2.316,-1.847 -0.039,-0.055 -0.027,-0.131 0.027,-0.171 0.011,-0.008 0.024,-0.014 0.037,-0.018 0.582,-0.187 1.118,-0.136 1.623,-0.057 0.497,0.105 0.975,0.247 1.381,0.519 0.405,0.276 0.711,0.744 1.095,1.059 0.379,0.312 0.848,0.475 1.321,0.497 0.499,0.046 1.001,-0.109 1.509,-0.022 0.496,0.074 1.031,0.131 1.538,0.366 0.503,0.23 0.989,0.613 1.336,1.126 0.178,0.249 0.307,0.542 0.382,0.837 0.042,0.152 0.059,0.322 0.063,0.474 -0.011,0.142 -0.024,0.279 -0.061,0.43 l -0.003,0.01 c -0.015,0.064 -0.079,0.104 -0.144,0.089 -0.014,-0.003 -0.026,-0.008 -0.036,-0.015 z"
         id="path74"
         style="fill:#50c0e0;display:inline" />
      <path
         d="m 69.938,40.338 c -1.492,-0.182 -2.734,-0.5 -4.001,-0.863 -0.625,-0.193 -1.226,-0.468 -1.847,-0.721 -0.625,-0.234 -1.238,-0.541 -1.854,-0.887 -0.617,-0.338 -1.265,-0.583 -1.945,-0.661 -0.681,-0.083 -1.416,0.092 -2.116,0.073 -0.7,-0.021 -1.359,-0.252 -2.01,-0.517 -0.642,-0.294 -1.276,-0.633 -1.822,-1.2 -0.044,-0.045 -0.042,-0.118 0.003,-0.162 0.016,-0.015 0.036,-0.025 0.056,-0.029 0.763,-0.168 1.449,-0.153 2.136,-0.121 0.679,0.063 1.354,0.131 1.99,0.399 0.637,0.271 1.24,0.725 1.897,0.926 0.657,0.206 1.347,0.252 2.062,0.227 0.716,-0.033 1.429,-0.006 2.12,0.134 0.695,0.121 1.398,0.258 2.06,0.532 1.304,0.572 2.557,1.415 3.375,2.699 0.034,0.05 0.021,0.119 -0.029,0.153 -0.022,0.015 -0.05,0.02 -0.075,0.018 z"
         id="path78"
         style="fill:#50c0e0;display:inline" />
      <path
         d="m 65.02,43.23 c -1.488,-0.274 -2.665,-1.075 -3.717,-1.692 -0.53,-0.332 -0.961,-0.675 -1.516,-0.983 -0.516,-0.271 -1.081,-0.599 -1.664,-0.924 -0.589,-0.32 -1.238,-0.513 -1.902,-0.508 -0.666,0 -1.34,0.292 -2,0.406 -0.662,0.111 -1.327,0.027 -2.001,-0.082 -0.671,-0.14 -1.354,-0.315 -2.008,-0.731 -0.054,-0.034 -0.069,-0.105 -0.035,-0.159 0.011,-0.018 0.027,-0.032 0.045,-0.041 0.687,-0.349 1.345,-0.5 2.015,-0.626 0.668,-0.094 1.345,-0.172 2.024,-0.028 0.681,0.146 1.349,0.497 2.019,0.619 0.672,0.125 1.353,0.118 2.076,0.081 0.729,-0.042 1.453,0.016 2.178,0.257 0.688,0.201 1.428,0.529 1.993,0.97 1.147,0.925 1.915,1.993 2.61,3.281 0.029,0.054 0.01,0.121 -0.044,0.15 -0.024,0.011 -0.05,0.014 -0.073,0.01 z"
         id="path82"
         style="fill:#50c0e0;display:inline" />
      <path
         d="m 43.49,65.401 c -0.881,-0.09 -1.737,-0.677 -2.282,-1.451 -0.561,-0.774 -0.85,-1.687 -0.971,-2.563 -0.116,-0.886 -0.014,-1.751 0.125,-2.581 0.122,-0.834 0.384,-1.634 0.714,-2.402 0.324,-0.77 0.583,-1.536 0.691,-2.336 0.112,-0.799 -0.019,-1.655 0.033,-2.464 0.185,-1.616 0.774,-3.03 1.52,-4.553 0.026,-0.055 0.092,-0.078 0.147,-0.051 0.024,0.012 0.043,0.032 0.053,0.055 0.364,0.832 0.385,1.705 0.364,2.529 -0.055,0.825 -0.155,1.636 -0.458,2.392 -0.306,0.755 -0.8,1.461 -1.029,2.229 -0.233,0.767 -0.294,1.573 -0.243,2.384 0.06,0.813 0.099,1.604 0.091,2.368 0.013,0.769 0.08,1.513 0.116,2.226 0.078,1.444 0.178,2.699 1.229,4.048 0.037,0.047 0.028,0.114 -0.019,0.15 -0.022,0.018 -0.05,0.024 -0.076,0.022 L 43.49,65.401 z"
         id="path86"
         style="fill:#50c0e0;display:inline" />
      <path
         d="M 47.643,63.133 C 45.945,62.867 44.428,61.537 43.711,59.9 43.35,59.082 43.227,58.205 43.173,57.366 c -0.073,-0.841 0.02,-1.67 0.188,-2.476 0.161,-0.806 0.263,-1.592 0.195,-2.379 -0.063,-0.787 -0.39,-1.567 -0.556,-2.322 -0.165,-0.757 -0.151,-1.501 -0.183,-2.248 -0.004,-0.755 -0.035,-1.495 0.003,-2.357 10e-4,-0.061 0.053,-0.109 0.114,-0.107 0.026,0 0.051,0.011 0.069,0.026 0.676,0.578 1.07,1.367 1.347,2.16 0.249,0.802 0.404,1.63 0.316,2.446 -0.09,0.818 -0.407,1.613 -0.465,2.4 -0.062,0.787 0.039,1.576 0.254,2.345 0.223,0.768 0.422,1.512 0.586,2.228 0.184,0.718 0.428,1.383 0.653,2.027 0.42,1.31 1.069,2.479 2.058,3.857 0.035,0.049 0.023,0.115 -0.025,0.149 -0.023,0.018 -0.052,0.023 -0.079,0.02 l -0.005,-0.002 z"
         id="path90"
         style="fill:#50c0e0;display:inline" />
      <path
         d="m 52.185,59.989 c -1.542,-0.016 -2.912,-1.01 -3.815,-2.139 -0.454,-0.582 -0.758,-1.25 -1.022,-1.912 -0.283,-0.655 -0.44,-1.357 -0.522,-2.069 -0.089,-0.709 -0.229,-1.38 -0.508,-2.004 -0.276,-0.624 -0.787,-1.18 -1.105,-1.801 -0.316,-0.621 -0.421,-1.303 -0.502,-1.983 -0.051,-0.689 -0.066,-1.381 0.122,-2.134 0.015,-0.062 0.077,-0.099 0.139,-0.084 0.021,0.005 0.04,0.016 0.054,0.03 0.552,0.549 0.884,1.164 1.189,1.778 0.275,0.623 0.532,1.244 0.599,1.92 0.064,0.676 -0.043,1.41 0.116,2.065 0.155,0.656 0.483,1.255 0.911,1.795 0.434,0.537 0.838,1.066 1.184,1.607 0.364,0.534 0.755,1.029 1.086,1.548 0.66,1.063 1.265,2.04 2.172,3.204 0.037,0.048 0.028,0.117 -0.02,0.154 -0.021,0.016 -0.045,0.023 -0.068,0.023 h -0.01 z"
         id="path94"
         style="fill:#50c0e0;display:inline" />
      <path
         d="m 56.854,56.971 c -0.676,0.144 -1.227,0.22 -1.796,0.214 -0.56,0 -1.115,-0.045 -1.658,-0.23 -0.535,-0.209 -1.091,-0.42 -1.602,-0.768 -0.257,-0.19 -0.473,-0.401 -0.738,-0.602 -0.281,-0.198 -0.503,-0.428 -0.72,-0.628 -0.422,-0.419 -0.86,-0.787 -1.377,-1.106 -0.51,-0.324 -1.019,-0.655 -1.368,-1.094 -0.708,-0.897 -1.139,-1.827 -1.656,-2.909 l -0.005,-0.012 c -0.027,-0.056 -0.003,-0.123 0.053,-0.149 0.018,-0.009 0.037,-0.012 0.055,-0.011 0.681,0.041 1.257,0.389 1.729,0.744 0.485,0.36 0.882,0.782 1.236,1.221 0.348,0.443 0.534,0.997 0.755,1.529 0.212,0.535 0.537,0.999 0.979,1.301 0.218,0.156 0.46,0.254 0.688,0.292 0.249,0.027 0.567,-0.004 0.842,-0.013 0.559,0.002 1.091,0.078 1.646,0.145 0.547,0.088 1.086,0.304 1.609,0.605 0.514,0.296 1.037,0.714 1.401,1.285 l 0.002,0.004 c 0.036,0.056 0.02,0.13 -0.036,0.166 -0.011,0.008 -0.025,0.013 -0.039,0.016 z"
         id="path98"
         style="fill:#50c0e0;display:inline" />
      <path
         d="m 58.713,53.929 c -1.3,-0.37 -2.325,-0.743 -3.384,-1.228 -0.52,-0.248 -1.007,-0.58 -1.511,-0.91 -0.512,-0.31 -0.997,-0.702 -1.456,-1.147 -0.464,-0.438 -0.952,-0.812 -1.519,-1.054 -0.559,-0.251 -1.257,-0.313 -1.855,-0.599 -0.595,-0.286 -1.049,-0.794 -1.417,-1.345 -0.347,-0.569 -0.612,-1.205 -0.589,-1.928 0.002,-0.065 0.057,-0.116 0.122,-0.114 0.018,0 0.037,0.006 0.051,0.014 0.631,0.318 1.09,0.656 1.562,0.973 0.449,0.337 0.903,0.628 1.273,1.066 0.366,0.438 0.688,1.024 1.175,1.374 0.48,0.357 1.065,0.536 1.683,0.631 0.622,0.089 1.227,0.212 1.799,0.43 0.581,0.198 1.173,0.405 1.711,0.737 1.053,0.673 2.064,1.635 2.493,2.954 0.021,0.059 -0.009,0.123 -0.067,0.144 -0.024,0.008 -0.05,0.007 -0.071,0.002 z"
         id="path102"
         style="fill:#50c0e0;display:inline" />
      <path
         d="m 61.212,49.619 c -1.231,-0.979 -2.33,-1.242 -3.628,-1.566 -0.637,-0.164 -1.297,-0.382 -1.99,-0.588 -0.704,-0.186 -1.405,-0.467 -2.086,-0.817 -0.682,-0.341 -1.367,-0.612 -2.093,-0.745 -0.724,-0.136 -1.525,-0.046 -2.278,-0.171 -0.751,-0.129 -1.43,-0.485 -2.074,-0.885 -0.631,-0.428 -1.234,-0.915 -1.682,-1.61 -0.034,-0.052 -0.019,-0.122 0.034,-0.156 0.02,-0.013 0.043,-0.019 0.065,-0.018 0.82,0.025 1.52,0.194 2.22,0.362 0.686,0.196 1.364,0.376 1.989,0.732 0.623,0.354 1.215,0.874 1.897,1.124 0.68,0.254 1.411,0.328 2.154,0.297 0.743,-0.039 1.475,-0.051 2.204,0.029 0.738,0.066 1.51,0.138 2.267,0.404 0.749,0.268 1.505,0.679 2.113,1.288 0.604,0.599 1.042,1.409 1.063,2.227 v 0.006 c 0.002,0.061 -0.046,0.11 -0.105,0.111 -0.026,10e-4 -0.052,-0.008 -0.07,-0.024 z"
         id="path106"
         style="fill:#50c0e0;display:inline" />
      <path
         d="m 44.481,40.941 c 1.017,0.037 2.037,0.255 3.025,0.457 0.99,0.199 1.979,0.322 2.979,0.386 2.011,0.127 3.989,0.078 6.046,-0.01 1.041,-0.026 2.134,-0.015 3.27,0.191 0.61,0.094 1.279,0.362 1.775,0.617 0.521,0.26 0.991,0.537 1.448,0.819 0.912,0.563 1.766,1.149 2.604,1.704 0.418,0.276 0.832,0.547 1.23,0.787 0.388,0.234 0.813,0.466 1.046,0.532 1.077,0.303 1.705,1.422 1.402,2.5 -0.303,1.077 -1.422,1.705 -2.499,1.402 -0.162,-0.046 -0.314,-0.11 -0.455,-0.19 l -0.198,-0.115 c -0.675,-0.389 -1.08,-0.748 -1.513,-1.109 -0.419,-0.359 -0.802,-0.716 -1.181,-1.068 -0.752,-0.704 -1.474,-1.399 -2.198,-2.035 -0.74,-0.633 -1.42,-1.224 -2.088,-1.449 -0.831,-0.304 -1.77,-0.483 -2.752,-0.622 -1.995,-0.255 -4.074,-0.529 -6.08,-0.987 -1.008,-0.229 -2.009,-0.522 -2.969,-0.881 -0.956,-0.365 -1.889,-0.728 -2.892,-0.929 z"
         id="path110"
         style="fill:#333333;display:inline" />
    </g>
  </g>
</svg>
